{
    "asset" : {
        "generator" : "Khronos glTF Blender I/O v3.4.50",
        "version" : "2.0"
    },
    "scene" : 0,
    "scenes" : [
        {
            "name" : "Scene",
            "nodes" : [
                2,
                3
            ]
        }
    ],
    "nodes" : [
        {
            "mesh" : 0,
            "name" : "Object_3",
            "rotation" : [
                0.5,
                -0.5,
                -0.5,
                0.5
            ],
            "scale" : [
                0.7015124559402466,
                0.7015124559402466,
                0.7015124559402466
            ],
            "translation" : [
                0.015763403847813606,
                3.4341201782226562,
                0
            ]
        },
        {
            "children" : [
                0
            ],
            "name" : "lymana_screwheads.obj.cleaner.materialmerger.gles"
        },
        {
            "children" : [
                1
            ],
            "name" : "Sketchfab_model",
            "rotation" : [
                1,
                0,
                0,
                0
            ]
        },
        {
            "mesh" : 1,
            "name" : "Screwdriver"
        }
    ],
    "materials" : [
        {
            "doubleSided" : true,
            "name" : "Material.003",
            "pbrMetallicRoughness" : {
                "baseColorFactor" : [
                    0.8000000715255737,
                    0.4460046887397766,
                    0.13527116179466248,
                    1
                ],
                "metallicFactor" : 0.5577689409255981,
                "roughnessFactor" : 0.3243027925491333
            }
        },
        {
            "doubleSided" : true,
            "name" : "ScrewdriverIronMaterial",
            "pbrMetallicRoughness" : {
                "baseColorFactor" : [
                    0.723041296005249,
                    0.723041296005249,
                    0.723041296005249,
                    1
                ],
                "metallicFactor" : 0,
                "roughnessFactor" : 0.5
            }
        },
        {
            "doubleSided" : true,
            "name" : "ScrewdriverHandlerMaterial",
            "pbrMetallicRoughness" : {
                "baseColorFactor" : [
                    0.0637204647064209,
                    0.0637204647064209,
                    0.0637204647064209,
                    1
                ],
                "metallicFactor" : 0,
                "roughnessFactor" : 0.5
            }
        },
        {
            "doubleSided" : true,
            "name" : "ScrewdriverHandlerHighlightMaterial",
            "pbrMetallicRoughness" : {
                "baseColorFactor" : [
                    0.8307700157165527,
                    0.02028857171535492,
                    0.045186225324869156,
                    1
                ],
                "metallicFactor" : 0,
                "roughnessFactor" : 0.5
            }
        },
        {
            "doubleSided" : true,
            "name" : "ScrewdriverBitMaterial",
            "pbrMetallicRoughness" : {
                "baseColorFactor" : [
                    0.13286319375038147,
                    0.13286319375038147,
                    0.13286319375038147,
                    1
                ],
                "metallicFactor" : 0,
                "roughnessFactor" : 0.5
            }
        }
    ],
    "meshes" : [
        {
            "name" : "Object_1",
            "primitives" : [
                {
                    "attributes" : {
                        "POSITION" : 0,
                        "TEXCOORD_0" : 1,
                        "NORMAL" : 2
                    },
                    "indices" : 3,
                    "material" : 0
                }
            ]
        },
        {
            "name" : "Cylinder",
            "primitives" : [
                {
                    "attributes" : {
                        "POSITION" : 4,
                        "NORMAL" : 5
                    },
                    "indices" : 6,
                    "material" : 1
                },
                {
                    "attributes" : {
                        "POSITION" : 7,
                        "NORMAL" : 8
                    },
                    "indices" : 9,
                    "material" : 2
                },
                {
                    "attributes" : {
                        "POSITION" : 10,
                        "NORMAL" : 11
                    },
                    "indices" : 12,
                    "material" : 3
                },
                {
                    "attributes" : {
                        "POSITION" : 13,
                        "NORMAL" : 14
                    },
                    "indices" : 15,
                    "material" : 4
                }
            ]
        }
    ],
    "accessors" : [
        {
            "bufferView" : 0,
            "componentType" : 5126,
            "count" : 36285,
            "max" : [
                0.8300204873085022,
                0.40306639671325684,
                0.42662715911865234
            ],
            "min" : [
                -0.6099825501441956,
                -0.403714656829834,
                -0.3883829116821289
            ],
            "type" : "VEC3"
        },
        {
            "bufferView" : 1,
            "componentType" : 5126,
            "count" : 36285,
            "type" : "VEC2"
        },
        {
            "bufferView" : 2,
            "componentType" : 5126,
            "count" : 36285,
            "type" : "VEC3"
        },
        {
            "bufferView" : 3,
            "componentType" : 5123,
            "count" : 127296,
            "type" : "SCALAR"
        },
        {
            "bufferView" : 4,
            "componentType" : 5126,
            "count" : 188,
            "max" : [
                0.10000000149011612,
                0.18969249725341797,
                0.15467020869255066
            ],
            "min" : [
                -0.09999998658895493,
                -2.758450508117676,
                -0.15467031300067902
            ],
            "type" : "VEC3"
        },
        {
            "bufferView" : 5,
            "componentType" : 5126,
            "count" : 188,
            "type" : "VEC3"
        },
        {
            "bufferView" : 6,
            "componentType" : 5123,
            "count" : 288,
            "type" : "SCALAR"
        },
        {
            "bufferView" : 7,
            "componentType" : 5126,
            "count" : 516,
            "max" : [
                0.3595719337463379,
                2.550347089767456,
                0.35957178473472595
            ],
            "min" : [
                -0.35957199335098267,
                0.11144471168518066,
                -0.35957202315330505
            ],
            "type" : "VEC3"
        },
        {
            "bufferView" : 8,
            "componentType" : 5126,
            "count" : 516,
            "type" : "VEC3"
        },
        {
            "bufferView" : 9,
            "componentType" : 5123,
            "count" : 786,
            "type" : "SCALAR"
        },
        {
            "bufferView" : 10,
            "componentType" : 5126,
            "count" : 24,
            "max" : [
                0.30343765020370483,
                2.3417916297912598,
                0.30343756079673767
            ],
            "min" : [
                -0.3034377098083496,
                0.8839616775512695,
                -0.303437739610672
            ],
            "type" : "VEC3"
        },
        {
            "bufferView" : 11,
            "componentType" : 5126,
            "count" : 24,
            "type" : "VEC3"
        },
        {
            "bufferView" : 12,
            "componentType" : 5123,
            "count" : 36,
            "type" : "SCALAR"
        },
        {
            "bufferView" : 13,
            "componentType" : 5126,
            "count" : 60,
            "max" : [
                0.03008144721388817,
                -2.758450508117676,
                0.13617148995399475
            ],
            "min" : [
                -0.03008139878511429,
                -3.001389503479004,
                -0.13617157936096191
            ],
            "type" : "VEC3"
        },
        {
            "bufferView" : 14,
            "componentType" : 5126,
            "count" : 60,
            "type" : "VEC3"
        },
        {
            "bufferView" : 15,
            "componentType" : 5123,
            "count" : 102,
            "type" : "SCALAR"
        }
    ],
    "bufferViews" : [
        {
            "buffer" : 0,
            "byteLength" : 435420,
            "byteOffset" : 0,
            "target" : 34962
        },
        {
            "buffer" : 0,
            "byteLength" : 290280,
            "byteOffset" : 435420,
            "target" : 34962
        },
        {
            "buffer" : 0,
            "byteLength" : 435420,
            "byteOffset" : 725700,
            "target" : 34962
        },
        {
            "buffer" : 0,
            "byteLength" : 254592,
            "byteOffset" : 1161120,
            "target" : 34963
        },
        {
            "buffer" : 0,
            "byteLength" : 2256,
            "byteOffset" : 1415712,
            "target" : 34962
        },
        {
            "buffer" : 0,
            "byteLength" : 2256,
            "byteOffset" : 1417968,
            "target" : 34962
        },
        {
            "buffer" : 0,
            "byteLength" : 576,
            "byteOffset" : 1420224,
            "target" : 34963
        },
        {
            "buffer" : 0,
            "byteLength" : 6192,
            "byteOffset" : 1420800,
            "target" : 34962
        },
        {
            "buffer" : 0,
            "byteLength" : 6192,
            "byteOffset" : 1426992,
            "target" : 34962
        },
        {
            "buffer" : 0,
            "byteLength" : 1572,
            "byteOffset" : 1433184,
            "target" : 34963
        },
        {
            "buffer" : 0,
            "byteLength" : 288,
            "byteOffset" : 1434756,
            "target" : 34962
        },
        {
            "buffer" : 0,
            "byteLength" : 288,
            "byteOffset" : 1435044,
            "target" : 34962
        },
        {
            "buffer" : 0,
            "byteLength" : 72,
            "byteOffset" : 1435332,
            "target" : 34963
        },
        {
            "buffer" : 0,
            "byteLength" : 720,
            "byteOffset" : 1435404,
            "target" : 34962
        },
        {
            "buffer" : 0,
            "byteLength" : 720,
            "byteOffset" : 1436124,
            "target" : 34962
        },
        {
            "buffer" : 0,
            "byteLength" : 204,
            "byteOffset" : 1436844,
            "target" : 34963
        }
    ],
    "buffers" : [
        {
            "byteLength" : 1437048,
            "uri" : "screwdriver.bin"
        }
    ]
}
