{
    "asset" : {
        "generator" : "Khronos glTF Blender I/O v3.4.50",
        "version" : "2.0"
    },
    "scene" : 0,
    "scenes" : [
        {
            "name" : "Scene",
            "nodes" : [
                0,
                1,
                2,
                3,
                4
            ]
        }
    ],
    "nodes" : [
        {
            "mesh" : 0,
            "name" : "Text",
            "scale" : [
                0.631085991859436,
                0.631085991859436,
                0.631085991859436
            ],
            "translation" : [
                -3.6709978580474854,
                0,
                0
            ]
        },
        {
            "mesh" : 1,
            "name" : "Cube",
            "scale" : [
                1,
                0.4195922613143921,
                1
            ],
            "translation" : [
                -0.017679627984762192,
                0,
                1.2965059280395508
            ]
        },
        {
            "mesh" : 2,
            "name" : "Plane",
            "scale" : [
                3.4914133548736572,
                2.092261791229248,
                6.01963472366333
            ],
            "translation" : [
                -2.5210394859313965,
                -0.333516925573349,
                0.6843826770782471
            ]
        },
        {
            "mesh" : 3,
            "name" : "Cube.001",
            "scale" : [
                1,
                0.4195922613143921,
                1
            ],
            "translation" : [
                0,
                0,
                -4.1007304191589355
            ]
        },
        {
            "mesh" : 4,
            "name" : "Cube.002",
            "scale" : [
                1,
                0.4195922613143921,
                1
            ],
            "translation" : [
                0,
                0,
                -1.936743974685669
            ]
        }
    ],
    "materials" : [
        {
            "doubleSided" : true,
            "name" : "Material.007",
            "pbrMetallicRoughness" : {
                "baseColorFactor" : [
                    1,
                    1,
                    1,
                    1
                ],
                "metallicFactor" : 0,
                "roughnessFactor" : 0.4000000059604645
            }
        },
        {
            "doubleSided" : true,
            "name" : "Material.001",
            "pbrMetallicRoughness" : {
                "baseColorFactor" : [
                    1,
                    0,
                    0.0005729427793994546,
                    1
                ],
                "metallicFactor" : 0,
                "roughnessFactor" : 0.4000000059604645
            }
        },
        {
            "doubleSided" : true,
            "name" : "Material.002",
            "pbrMetallicRoughness" : {
                "baseColorFactor" : [
                    1,
                    1,
                    1,
                    1
                ],
                "metallicFactor" : 0,
                "roughnessFactor" : 0.4000000059604645
            }
        },
        {
            "doubleSided" : true,
            "name" : "Material.008",
            "pbrMetallicRoughness" : {
                "baseColorFactor" : [
                    0.13413825631141663,
                    0.8000000715255737,
                    0.1000458225607872,
                    1
                ],
                "metallicFactor" : 0,
                "roughnessFactor" : 0.4000000059604645
            }
        },
        {
            "doubleSided" : true,
            "name" : "Material.003",
            "pbrMetallicRoughness" : {
                "baseColorFactor" : [
                    0.1788622885942459,
                    0.1788622885942459,
                    0.1788622885942459,
                    1
                ],
                "metallicFactor" : 0,
                "roughnessFactor" : 0.4000000059604645
            }
        },
        {
            "doubleSided" : true,
            "name" : "Material.004",
            "pbrMetallicRoughness" : {
                "baseColorFactor" : [
                    1,
                    1,
                    1,
                    1
                ],
                "metallicFactor" : 0,
                "roughnessFactor" : 0.4000000059604645
            }
        },
        {
            "doubleSided" : true,
            "name" : "Material.005",
            "pbrMetallicRoughness" : {
                "baseColorFactor" : [
                    0.1788622885942459,
                    0.1788622885942459,
                    0.1788622885942459,
                    1
                ],
                "metallicFactor" : 0,
                "roughnessFactor" : 0.4000000059604645
            }
        },
        {
            "doubleSided" : true,
            "name" : "Material.006",
            "pbrMetallicRoughness" : {
                "baseColorFactor" : [
                    1,
                    1,
                    1,
                    1
                ],
                "metallicFactor" : 0,
                "roughnessFactor" : 0.4000000059604645
            }
        }
    ],
    "meshes" : [
        {
            "name" : "Text",
            "primitives" : [
                {
                    "attributes" : {
                        "POSITION" : 0,
                        "TEXCOORD_0" : 1,
                        "NORMAL" : 2
                    },
                    "indices" : 3,
                    "material" : 0
                }
            ]
        },
        {
            "name" : "Cube.001",
            "primitives" : [
                {
                    "attributes" : {
                        "POSITION" : 4,
                        "TEXCOORD_0" : 5,
                        "NORMAL" : 6
                    },
                    "indices" : 7,
                    "material" : 1
                },
                {
                    "attributes" : {
                        "POSITION" : 8,
                        "TEXCOORD_0" : 9,
                        "NORMAL" : 10
                    },
                    "indices" : 11,
                    "material" : 2
                }
            ]
        },
        {
            "name" : "Plane",
            "primitives" : [
                {
                    "attributes" : {
                        "POSITION" : 12,
                        "TEXCOORD_0" : 13,
                        "NORMAL" : 14
                    },
                    "indices" : 15,
                    "material" : 3
                }
            ]
        },
        {
            "name" : "Cube.002",
            "primitives" : [
                {
                    "attributes" : {
                        "POSITION" : 16,
                        "TEXCOORD_0" : 17,
                        "NORMAL" : 18
                    },
                    "indices" : 7,
                    "material" : 4
                },
                {
                    "attributes" : {
                        "POSITION" : 19,
                        "TEXCOORD_0" : 20,
                        "NORMAL" : 21
                    },
                    "indices" : 11,
                    "material" : 5
                }
            ]
        },
        {
            "name" : "Cube.003",
            "primitives" : [
                {
                    "attributes" : {
                        "POSITION" : 22,
                        "TEXCOORD_0" : 23,
                        "NORMAL" : 24
                    },
                    "indices" : 7,
                    "material" : 6
                },
                {
                    "attributes" : {
                        "POSITION" : 25,
                        "TEXCOORD_0" : 26,
                        "NORMAL" : 27
                    },
                    "indices" : 11,
                    "material" : 7
                }
            ]
        }
    ],
    "accessors" : [
        {
            "bufferView" : 0,
            "componentType" : 5126,
            "count" : 1000,
            "max" : [
                7.188000202178955,
                0,
                0.009000000543892384
            ],
            "min" : [
                0.0020000000949949026,
                0,
                -0.6910000443458557
            ],
            "type" : "VEC3"
        },
        {
            "bufferView" : 1,
            "componentType" : 5126,
            "count" : 1000,
            "type" : "VEC2"
        },
        {
            "bufferView" : 2,
            "componentType" : 5126,
            "count" : 1000,
            "type" : "VEC3"
        },
        {
            "bufferView" : 3,
            "componentType" : 5123,
            "count" : 2229,
            "type" : "SCALAR"
        },
        {
            "bufferView" : 4,
            "componentType" : 5126,
            "count" : 90,
            "max" : [
                3.6765692234039307,
                2.131962299346924,
                1
            ],
            "min" : [
                -1,
                -1,
                -1
            ],
            "type" : "VEC3"
        },
        {
            "bufferView" : 5,
            "componentType" : 5126,
            "count" : 90,
            "type" : "VEC2"
        },
        {
            "bufferView" : 6,
            "componentType" : 5126,
            "count" : 90,
            "type" : "VEC3"
        },
        {
            "bufferView" : 7,
            "componentType" : 5123,
            "count" : 150,
            "type" : "SCALAR"
        },
        {
            "bufferView" : 8,
            "componentType" : 5126,
            "count" : 4,
            "max" : [
                0.23902487754821777,
                2.131962299346924,
                0.4824480414390564
            ],
            "min" : [
                -0.9999999403953552,
                2.131962299346924,
                -0.48244816064834595
            ],
            "type" : "VEC3"
        },
        {
            "bufferView" : 9,
            "componentType" : 5126,
            "count" : 4,
            "type" : "VEC2"
        },
        {
            "bufferView" : 10,
            "componentType" : 5126,
            "count" : 4,
            "type" : "VEC3"
        },
        {
            "bufferView" : 11,
            "componentType" : 5123,
            "count" : 6,
            "type" : "SCALAR"
        },
        {
            "bufferView" : 12,
            "componentType" : 5126,
            "count" : 4,
            "max" : [
                1,
                0,
                1
            ],
            "min" : [
                -1,
                0,
                -1
            ],
            "type" : "VEC3"
        },
        {
            "bufferView" : 13,
            "componentType" : 5126,
            "count" : 4,
            "type" : "VEC2"
        },
        {
            "bufferView" : 14,
            "componentType" : 5126,
            "count" : 4,
            "type" : "VEC3"
        },
        {
            "bufferView" : 15,
            "componentType" : 5123,
            "count" : 6,
            "type" : "SCALAR"
        },
        {
            "bufferView" : 16,
            "componentType" : 5126,
            "count" : 90,
            "max" : [
                3.6765692234039307,
                2.131962299346924,
                1
            ],
            "min" : [
                -1,
                -1,
                -1
            ],
            "type" : "VEC3"
        },
        {
            "bufferView" : 17,
            "componentType" : 5126,
            "count" : 90,
            "type" : "VEC2"
        },
        {
            "bufferView" : 18,
            "componentType" : 5126,
            "count" : 90,
            "type" : "VEC3"
        },
        {
            "bufferView" : 19,
            "componentType" : 5126,
            "count" : 4,
            "max" : [
                0.23902487754821777,
                2.131962299346924,
                0.4824480414390564
            ],
            "min" : [
                -0.9999999403953552,
                2.131962299346924,
                -0.48244816064834595
            ],
            "type" : "VEC3"
        },
        {
            "bufferView" : 20,
            "componentType" : 5126,
            "count" : 4,
            "type" : "VEC2"
        },
        {
            "bufferView" : 21,
            "componentType" : 5126,
            "count" : 4,
            "type" : "VEC3"
        },
        {
            "bufferView" : 22,
            "componentType" : 5126,
            "count" : 90,
            "max" : [
                3.6765692234039307,
                2.131962299346924,
                1
            ],
            "min" : [
                -1,
                -1,
                -1
            ],
            "type" : "VEC3"
        },
        {
            "bufferView" : 23,
            "componentType" : 5126,
            "count" : 90,
            "type" : "VEC2"
        },
        {
            "bufferView" : 24,
            "componentType" : 5126,
            "count" : 90,
            "type" : "VEC3"
        },
        {
            "bufferView" : 25,
            "componentType" : 5126,
            "count" : 4,
            "max" : [
                0.23902487754821777,
                2.131962299346924,
                0.4824480414390564
            ],
            "min" : [
                -0.9999999403953552,
                2.131962299346924,
                -0.48244816064834595
            ],
            "type" : "VEC3"
        },
        {
            "bufferView" : 26,
            "componentType" : 5126,
            "count" : 4,
            "type" : "VEC2"
        },
        {
            "bufferView" : 27,
            "componentType" : 5126,
            "count" : 4,
            "type" : "VEC3"
        }
    ],
    "bufferViews" : [
        {
            "buffer" : 0,
            "byteLength" : 12000,
            "byteOffset" : 0,
            "target" : 34962
        },
        {
            "buffer" : 0,
            "byteLength" : 8000,
            "byteOffset" : 12000,
            "target" : 34962
        },
        {
            "buffer" : 0,
            "byteLength" : 12000,
            "byteOffset" : 20000,
            "target" : 34962
        },
        {
            "buffer" : 0,
            "byteLength" : 4458,
            "byteOffset" : 32000,
            "target" : 34963
        },
        {
            "buffer" : 0,
            "byteLength" : 1080,
            "byteOffset" : 36460,
            "target" : 34962
        },
        {
            "buffer" : 0,
            "byteLength" : 720,
            "byteOffset" : 37540,
            "target" : 34962
        },
        {
            "buffer" : 0,
            "byteLength" : 1080,
            "byteOffset" : 38260,
            "target" : 34962
        },
        {
            "buffer" : 0,
            "byteLength" : 300,
            "byteOffset" : 39340,
            "target" : 34963
        },
        {
            "buffer" : 0,
            "byteLength" : 48,
            "byteOffset" : 39640,
            "target" : 34962
        },
        {
            "buffer" : 0,
            "byteLength" : 32,
            "byteOffset" : 39688,
            "target" : 34962
        },
        {
            "buffer" : 0,
            "byteLength" : 48,
            "byteOffset" : 39720,
            "target" : 34962
        },
        {
            "buffer" : 0,
            "byteLength" : 12,
            "byteOffset" : 39768,
            "target" : 34963
        },
        {
            "buffer" : 0,
            "byteLength" : 48,
            "byteOffset" : 39780,
            "target" : 34962
        },
        {
            "buffer" : 0,
            "byteLength" : 32,
            "byteOffset" : 39828,
            "target" : 34962
        },
        {
            "buffer" : 0,
            "byteLength" : 48,
            "byteOffset" : 39860,
            "target" : 34962
        },
        {
            "buffer" : 0,
            "byteLength" : 12,
            "byteOffset" : 39908,
            "target" : 34963
        },
        {
            "buffer" : 0,
            "byteLength" : 1080,
            "byteOffset" : 39920,
            "target" : 34962
        },
        {
            "buffer" : 0,
            "byteLength" : 720,
            "byteOffset" : 41000,
            "target" : 34962
        },
        {
            "buffer" : 0,
            "byteLength" : 1080,
            "byteOffset" : 41720,
            "target" : 34962
        },
        {
            "buffer" : 0,
            "byteLength" : 48,
            "byteOffset" : 42800,
            "target" : 34962
        },
        {
            "buffer" : 0,
            "byteLength" : 32,
            "byteOffset" : 42848,
            "target" : 34962
        },
        {
            "buffer" : 0,
            "byteLength" : 48,
            "byteOffset" : 42880,
            "target" : 34962
        },
        {
            "buffer" : 0,
            "byteLength" : 1080,
            "byteOffset" : 42928,
            "target" : 34962
        },
        {
            "buffer" : 0,
            "byteLength" : 720,
            "byteOffset" : 44008,
            "target" : 34962
        },
        {
            "buffer" : 0,
            "byteLength" : 1080,
            "byteOffset" : 44728,
            "target" : 34962
        },
        {
            "buffer" : 0,
            "byteLength" : 48,
            "byteOffset" : 45808,
            "target" : 34962
        },
        {
            "buffer" : 0,
            "byteLength" : 32,
            "byteOffset" : 45856,
            "target" : 34962
        },
        {
            "buffer" : 0,
            "byteLength" : 48,
            "byteOffset" : 45888,
            "target" : 34962
        }
    ],
    "buffers" : [
        {
            "byteLength" : 45936,
            "uri" : "rj45.bin"
        }
    ]
}
